HIERARCHY
ROOT Hips
{
 OFFSET 0.000000 0.000000 0.000000
 CHANNELS 6 Xposition Yposition Zposition Yrotation Xrotation Zrotation
 JOINT Chest
 {
  OFFSET 0.000000 9.581000 -0.001100
  CHANNELS 3 Yrotation Xrotation Zrotation
  JOINT Chest2
  {
   OFFSET 0.000000 9.561100 0.002200
   CHANNELS 3 Yrotation Xrotation Zrotation
   JOINT Chest3
   {
    OFFSET 0.000000 9.521100 0.000000
    CHANNELS 3 Yrotation Xrotation Zrotation
    JOINT Chest4
    {
     OFFSET 0.000000 9.511400 0.000000
     CHANNELS 3 Yrotation Xrotation Zrotation
     JOINT Neck
     {
      OFFSET 0.000000 14.375100 0.000000
      CHANNELS 3 Yrotation Xrotation Zrotation
      JOINT Head
      {
       OFFSET 0.000000 8.901200 0.004600
       CHANNELS 3 Yrotation Xrotation Zrotation
       End Site
       {
        OFFSET 0.000000 16.962200 0.002400
       }
      }
     }
     JOINT RightCollar
     {
      OFFSET -2.920100 9.518800 0.000000
      CHANNELS 3 Yrotation Xrotation Zrotation
      JOINT RightShoulder
      {
       OFFSET -13.664500 0.000000 0.000000
       CHANNELS 3 Yrotation Xrotation Zrotation
       JOINT RightElbow
       {
        OFFSET 0.000000 -29.999200 0.000000
        CHANNELS 3 Yrotation Xrotation Zrotation
        JOINT RightWrist
        {
         OFFSET 0.000000 -24.253600 0.000000
         CHANNELS 3 Yrotation Xrotation Zrotation
         End Site
         {
          OFFSET 0.000000 -17.918900 0.000000
         }
        }
       }
      }
     }
     JOINT LeftCollar
     {
      OFFSET 2.920100 9.518800 0.000000
      CHANNELS 3 Yrotation Xrotation Zrotation
      JOINT LeftShoulder
      {
       OFFSET 13.664500 0.000000 0.000000
       CHANNELS 3 Yrotation Xrotation Zrotation
       JOINT LeftElbow
       {
        OFFSET 0.000000 -29.999200 0.000000
        CHANNELS 3 Yrotation Xrotation Zrotation
        JOINT LeftWrist
        {
         OFFSET 0.000000 -24.253600 0.000000
         CHANNELS 3 Yrotation Xrotation Zrotation
         End Site
         {
          OFFSET 0.000000 -17.918900 0.000000
         }
        }
       }
      }
     }
    }
   }
  }
 }
 JOINT RightHip
 {
  OFFSET -7.797300 0.005300 0.000500
  CHANNELS 3 Yrotation Xrotation Zrotation
  JOINT RightKnee
  {
   OFFSET 0.000000 -40.663400 -0.000500
   CHANNELS 3 Yrotation Xrotation Zrotation
   JOINT RightAnkle
   {
    OFFSET 0.000000 -39.523700 -0.000900
    CHANNELS 3 Yrotation Xrotation Zrotation
    JOINT RightToe
    {
     OFFSET 0.000000 -6.418000 14.485300
     CHANNELS 3 Yrotation Xrotation Zrotation
     End Site
     {
      OFFSET 0.000000 -1.465200 6.326400
     }
    }
   }
  }
 }
 JOINT LeftHip
 {
  OFFSET 7.797300 0.005300 0.000500
  CHANNELS 3 Yrotation Xrotation Zrotation
  JOINT LeftKnee
  {
   OFFSET 0.000000 -40.663400 -0.000500
   CHANNELS 3 Yrotation Xrotation Zrotation
   JOINT LeftAnkle
   {
    OFFSET 0.000000 -39.523700 -0.000900
    CHANNELS 3 Yrotation Xrotation Zrotation
    JOINT LeftToe
    {
     OFFSET 0.000000 -6.418000 14.485300
     CHANNELS 3 Yrotation Xrotation Zrotation
     End Site
     {
      OFFSET 0.000000 -1.465200 6.326400
     }
    }
   }
  }
 }
}
MOTION
Frames: 6
Frame Time: 0.008333
-18.342266 126.897914 19.891449 -174.329146 -47.790680 -4.339128 -0.519010 26.462402 2.849836 -0.194820 4.465160 0.486218 -0.252834 7.104871 0.768397 -0.529352 21.668625 2.320534 6.883944 15.451213 2.413437 6.899818 -9.198234 0.973985 -0.844083 1.004280 1.321852 3.749025 -8.742532 -10.582552 -89.806757 -58.320896 138.549646 8.207572 20.185706 -3.416342 -12.904742 -6.717139 1.496073 -11.008265 -37.539617 21.713928 76.284242 -69.390273 -106.113641 -7.259484 -10.579431 0.931478 -20.413586 -16.725915 0.773100 -3.951206 67.072122 10.750846 10.430604 -4.432339 -6.525044 -0.003077 0.003404 -0.001363 14.995863 -6.707347 1.393082 -174.212152 84.832940 -179.256730 -11.859910 -14.202411 4.749652 0.001226 -0.000679 0.000543
-18.342001 126.896862 19.892059 -174.314364 -47.776130 -4.364702 -0.508136 26.452395 2.869900 -0.191601 4.467087 0.491006 -0.253059 7.103983 0.767846 -0.521760 21.668970 2.329311 6.878461 15.503598 2.397739 6.889586 -9.150957 0.962015 -0.837337 0.999105 1.333199 3.777645 -8.757437 -10.631090 -89.852068 -58.301349 138.575464 8.214194 20.196174 -3.397434 -12.888813 -6.720759 1.509940 -11.077461 -37.429773 21.785094 76.149386 -69.380486 -106.004287 -7.279930 -10.479006 0.923950 -20.413091 -16.735654 0.768933 -3.898462 67.076654 10.804864 10.503880 -4.455121 -6.406924 0.009119 -0.002855 0.004040 14.991939 -6.721441 1.404859 -174.179604 84.832608 -179.220691 -11.864058 -14.204023 4.752520 0.000786 -0.000765 0.000348
-18.343260 126.896344 19.892184 -174.311739 -47.767706 -4.372560 -0.493034 26.447507 2.878354 -0.177139 4.471775 0.490342 -0.271537 7.097625 0.774845 -0.507982 21.672555 2.335989 6.878826 15.602232 2.370036 6.871328 -9.160047 0.961362 -0.837535 0.992583 1.343381 3.805398 -8.765282 -10.653277 -89.898996 -58.293540 138.608510 8.225701 20.210748 -3.374103 -12.872131 -6.722549 1.521107 -11.140795 -37.340312 21.837695 75.915624 -69.384269 -105.808613 -7.296216 -10.383737 0.919639 -20.403877 -16.735276 0.762290 -3.878854 67.079328 10.821497 10.558006 -4.523422 -6.317397 0.011006 -0.010800 0.004876 14.996817 -6.724926 1.411024 -174.138712 84.834257 -179.181552 -11.868836 -14.204199 4.760906 -0.000653 -0.001501 -0.000289
-18.345012 126.896286 19.891865 -174.311093 -47.763676 -4.376123 -0.476485 26.446970 2.883794 -0.176194 4.472400 0.491943 -0.278158 7.095348 0.778475 -0.494707 21.676629 2.341921 6.866384 15.642199 2.358500 6.859776 -9.117562 0.951765 -0.832039 0.988546 1.356345 3.825143 -8.774332 -10.663192 -89.940577 -58.289435 138.635368 8.236875 20.214130 -3.350253 -12.854368 -6.722895 1.530694 -11.202066 -37.251649 21.886179 75.644712 -69.389835 -105.581610 -7.309880 -10.289491 0.913907 -20.392500 -16.723015 0.749940 -3.867717 67.081007 10.830502 10.627252 -4.614605 -6.243878 0.011223 -0.013992 0.004972 15.009798 -6.721320 1.412561 -174.124644 84.840196 -179.160428 -11.865797 -14.208229 4.755706 0.000143 -0.002899 0.000063
-18.344803 126.894911 19.892646 -174.309681 -47.748615 -4.390749 -0.454933 26.435613 2.901713 -0.175512 4.472742 0.493168 -0.276756 7.097313 0.781365 -0.490723 21.675403 2.347327 6.852092 15.679118 2.350124 6.845386 -9.078438 0.946000 -0.820456 0.995395 1.364317 3.827301 -8.790612 -10.659367 -89.974992 -58.282208 138.661100 8.249242 20.219644 -3.329558 -12.834867 -6.719455 1.542917 -11.257544 -37.163983 21.926227 75.344037 -69.393472 -105.327751 -7.321341 -10.193787 0.899254 -20.390712 -16.709569 0.752813 -3.842476 67.083837 10.848579 10.694203 -4.726598 -6.173191 0.021407 -0.028004 0.009481 15.019783 -6.730730 1.420705 -174.115641 84.844182 -179.142557 -11.864441 -14.215881 4.747623 0.000963 -0.003976 0.000427
-18.345522 126.894227 19.892729 -174.286241 -47.738022 -4.415786 -0.450737 26.430751 2.912667 -0.182233 4.469905 0.496430 -0.268898 7.099580 0.781294 -0.495458 21.672955 2.351754 6.842297 15.716792 2.340167 6.828606 -9.041130 0.944452 -0.806522 1.004692 1.370978 3.816016 -8.803368 -10.659424 -89.997402 -58.261324 138.689009 8.249160 20.202309 -3.313626 -12.815862 -6.713223 1.551517 -11.295880 -37.070973 21.959283 75.025281 -69.394774 -105.059248 -7.334979 -10.092979 0.871811 -20.408883 -16.685788 0.750619 -3.828455 67.082703 10.847522 10.782862 -4.869434 -6.093686 0.024712 -0.032561 0.010943 15.014064 -6.737567 1.423307 -174.126255 84.846626 -179.144334 -11.872355 -14.217801 4.750142 0.001035 -0.003460 0.000459
